<!-- icon666.com - MILLIONS vector ICONS FREE --><svg viewBox="0 0 64 64" xmlns="http://www.w3.org/2000/svg"><g id="Backend_website" fill="#050505" data-name="Backend website"><path d="m10 15h3a1 1 0 0 0 0-2h-3a1 1 0 0 1 -1-1v-2a1 1 0 0 1 1-1h26a1 1 0 0 1 1 1v2a1 1 0 0 1 -1 1h-15a1 1 0 0 0 0 2h15a3 3 0 0 0 3-3v-2a3 3 0 0 0 -3-3h-26a3 3 0 0 0 -3 3v2a3 3 0 0 0 3 3z" fill="#050505" style="fill: rgb(221, 197, 162);"></path><path d="m17 13a1 1 0 0 0 0 2 1 1 0 0 0 0-2z" fill="#050505" style="fill: rgb(221, 197, 162);"></path><circle cx="49" cy="11" r="2" fill="#050505" style="fill: rgb(221, 197, 162);"></circle><circle cx="43" cy="11" r="2" fill="#050505" style="fill: rgb(221, 197, 162);"></circle><circle cx="55" cy="11" r="2" fill="#050505" style="fill: rgb(221, 197, 162);"></circle><path d="m58 3h-52a3 3 0 0 0 -3 3v52a3 3 0 0 0 3 3h52a3 3 0 0 0 3-3v-52a3 3 0 0 0 -3-3zm-52 2h52a1 1 0 0 1 1 1v11h-54v-11a1 1 0 0 1 1-1zm52 54h-52a1 1 0 0 1 -1-1v-39h54v39a1 1 0 0 1 -1 1z" fill="#050505" style="fill: rgb(221, 197, 162);"></path><path d="m47.49 35.74-3.05-.51a13.79 13.79 0 0 0 -1-2.36l1.8-2.52a3 3 0 0 0 -.24-3.87l-.44-.43a3 3 0 0 0 -3.86-.32l-2.52 1.8a13.79 13.79 0 0 0 -2.36-1l-.51-3a3 3 0 0 0 -3-2.53h-.62a3 3 0 0 0 -3 2.51l-.51 3a13.79 13.79 0 0 0 -2.36 1l-2.52-1.8a3 3 0 0 0 -3.87.32l-.43.43a3 3 0 0 0 -.32 3.87l1.8 2.52a13.79 13.79 0 0 0 -1 2.36l-3 .51a3 3 0 0 0 -2.48 2.97v.62a3 3 0 0 0 2.51 2.95l3 .51a13.79 13.79 0 0 0 1 2.36l-1.8 2.52a3 3 0 0 0 .32 3.87l.43.43a3 3 0 0 0 2.12.88c1.28 0 1.82-.61 4.27-2.36a13.79 13.79 0 0 0 2.36 1l.51 3.05a3 3 0 0 0 3 2.51h.62a3 3 0 0 0 2.95-2.51l.51-3.05a13.79 13.79 0 0 0 2.36-1l2.52 1.8a3 3 0 0 0 3.83-.27l.44-.43a3 3 0 0 0 .32-3.87l-1.8-2.52a13.79 13.79 0 0 0 1-2.36l3.05-.51a3 3 0 0 0 2.48-3v-.62a3 3 0 0 0 -2.51-2.95zm.51 3.57a1 1 0 0 1 -.84 1l-3.67.61a1.06 1.06 0 0 0 -.81.75c-.49 2.15-1.4 2.93-1.37 3.6.07 1.42 3.47 3.6 2.23 4.85l-.44.43a1 1 0 0 1 -1.29.11c-3-2.16-3.38-2.65-4.12-2.21-4.36 2.59-3.33-.71-4.4 5.73a1 1 0 0 1 -1 .84h-.62a1 1 0 0 1 -1-.84c-.62-3.74-.54-4.22-1.31-4.46-4.78-1.5-2.36-2.53-7.21.94a1 1 0 0 1 -1.29-.1l-.43-.44a1 1 0 0 1 -.11-1.29c3.75-5.26 2.13-2.38 1-7.16-.21-.83-.8-.74-4.48-1.36a1 1 0 0 1 -.84-1v-.62a1 1 0 0 1 .84-1c6.45-1.07 3.18-.1 5.73-4.4.44-.74-.08-1.14-2.21-4.12a1 1 0 0 1 .1-1.29l.44-.43a1 1 0 0 1 1.29-.11c3 2.18 3.38 2.65 4.12 2.21 4.34-2.58 3.33.68 4.4-5.73a1 1 0 0 1 1-.84h.62a1 1 0 0 1 1 .84c.6 3.61.51 4.27 1.36 4.48 4.92 1.21 1.84 2.84 7.16-1a1 1 0 0 1 1.29.11l.44.43a1 1 0 0 1 .1 1.29c-.67.94-1.18 1.62-1.54 2.14-1.64 2.32-.39 1.09.58 5 .21.84.93.78 4.48 1.37a1 1 0 0 1 .84 1z" fill="#050505" style="fill: rgb(221, 197, 162);"></path><path d="m32 31a8 8 0 1 0 8 8 8 8 0 0 0 -8-8zm0 14a6 6 0 1 1 6-6 6 6 0 0 1 -6 6z" fill="#050505" style="fill: rgb(221, 197, 162);"></path></g></svg>