<!-- icon666.com - MILLIONS vector ICONS FREE --><svg viewBox="0 0 32 32" xmlns="http://www.w3.org/2000/svg"><g id="_x30_9"><path d="m29 2h-26c-.5527344 0-1 .4477539-1 1v26c0 .5522461.4472656 1 1 1h26c.5527344 0 1-.4477539 1-1v-26c0-.5522461-.4472656-1-1-1zm-1 6h-11.3818359l2-4h9.3818359zm-15.3818359 0 2-4h1.7636719l-2 4zm-8.6181641-4h8.3818359l-2 4h-6.3818359zm15 24v-1c0-.5512695.4482422-1 1-1h4c.5517578 0 1 .4487305 1 1v1zm9 0h-1v-1c0-1.6542969-1.3457031-3-3-3h-2-2c-1.6542969 0-3 1.3457031-3 3v1h-13v-18h24z" fill="#000000" style="fill: rgb(221, 197, 162);"></path><circle cx="6" cy="6" r="1" fill="#000000" style="fill: rgb(221, 197, 162);"></circle><circle cx="9" cy="6" r="1" fill="#000000" style="fill: rgb(221, 197, 162);"></circle><path d="m25 21c0-1.6542969-1.3457031-3-3-3s-3 1.3457031-3 3 1.3457031 3 3 3 3-1.3457031 3-3zm-3 1c-.5517578 0-1-.4487305-1-1s.4482422-1 1-1 1 .4487305 1 1-.4482422 1-1 1z" fill="#000000" style="fill: rgb(221, 197, 162);"></path><path d="m10.4853516 12.1425781-5 3c-.3007813.1806641-.4853516.5063477-.4853516.8574219s.1845703.6767578.4853516.8574219l1.0709838.6425781-1.0709839.6425781c-.3007812.1806641-.4853515.5063477-.4853515.8574219s.1845703.6767578.4853516.8574219l1.0709838.6425781-1.0709839.6425781c-.3007812.1806641-.4853515.5063477-.4853515.8574219s.1845703.6767578.4853516.8574219l5 3c.1582031.0952148.336914.1425781.5146484.1425781s.3564453-.0473633.5146484-.1425781l5-3c.3007813-.1806641.4853516-.5063477.4853516-.8574219s-.1845703-.6767578-.4853516-.8574219l-1.0709838-.6425781 1.0709839-.6425781c.3007812-.1806641.4853515-.5063477.4853515-.8574219s-.1845703-.6767578-.4853516-.8574219l-1.0709838-.6425781 1.0709839-.6425781c.3007812-.1806641.4853515-.5063477.4853515-.8574219s-.1845703-.6767578-.4853516-.8574219l-5-3c-.3164062-.1904297-.7128906-.1904297-1.0292968 0zm3.571289 9.8574219-3.0566406 1.8339844-3.0566406-1.8339844.5565796-.3338623 1.9854126 1.1912842c.1582031.0952148.336914.1425781.5146484.1425781s.3564453-.0473633.5146484-.1425781l1.9854126-1.1912842zm0-3-3.0566406 1.8339844-3.0566406-1.8339844.5565796-.3338623 1.9854126 1.1912842c.1582031.0952148.336914.1425781.5146484.1425781s.3564453-.0473633.5146484-.1425781l1.9854126-1.1912842zm-3.0566406-1.1660156-3.0566406-1.8339844 3.0566406-1.8339844 3.0566406 1.8339844z" fill="#000000" style="fill: rgb(221, 197, 162);"></path><path d="m19.2929688 16.7070313c.1953125.1953125.4511718.2929687.7070312.2929687s.5117188-.0976563.7070313-.2929688c.390625-.390625.390625-1.0234375 0-1.4140625l-1.2929688-1.2929687 1.2929688-1.2929688c.390625-.390625.390625-1.0234375 0-1.4140625s-1.0234375-.390625-1.4140625 0l-2 2c-.390625.390625-.390625 1.0234375 0 1.4140625z" fill="#000000" style="fill: rgb(221, 197, 162);"></path><path d="m23.2929688 16.7070313c.1953125.1953125.4511718.2929687.7070312.2929687s.5117188-.0976563.7070313-.2929688l2-2c.390625-.390625.390625-1.0234375 0-1.4140625l-2-2c-.390625-.390625-1.0234375-.390625-1.4140625 0s-.390625 1.0234375 0 1.4140625l1.2929687 1.2929688-1.2929688 1.2929688c-.3906249.390625-.3906249 1.0234375.0000001 1.4140625z" fill="#000000" style="fill: rgb(221, 197, 162);"></path></g></svg>