<!-- icon666.com - MILLIONS vector ICONS FREE --><svg clip-rule="evenodd" fill-rule="evenodd" image-rendering="optimizeQuality" shape-rendering="geometricPrecision" text-rendering="geometricPrecision" viewBox="0 0 43.3492 43.3492" xmlns="http://www.w3.org/2000/svg"><g id="Layer_x0020_1"><g id="_210858944"><path id="_210859880" d="m26.8397 5.7797h-6.1568c-.2623 0-.4743-.2119-.4743-.4732s.212-.4732.4742-.4732h6.1569c.2612 0 .4732.2119.4732.4732 0 .2612-.212.4732-.4732.4732z" fill="#000000" style="fill: rgb(221, 197, 162);"></path><path id="_210860312" d="m29.6613 8.6013h-11.801c-.2613 0-.4733-.2119-.4733-.4732s.212-.4732.4732-.4732h11.8011c.2612 0 .4732.2119.4732.4732.0001.2612-.212.4732-.4732.4732z" fill="#000000" style="fill: rgb(221, 197, 162);"></path><path id="_210860504" d="m37.161 41.7142h-26.8003c-.7414 0-1.3438-.6024-1.3438-1.3427v-37.3937c0-.7404.6023-1.3427 1.3437-1.3427l26.8004-.0001c.7413 0 1.3436.6024 1.3436 1.3428v10.0718c0 .2613-.212.4733-.4732.4733s-.4732-.212-.4732-.4733v-10.0718c0-.2188-.1785-.3973-.3973-.3973h-26.8002c-.2189 0-.3974.1785-.3974.3973l.0001 37.3936c0 .2189.1784.3964.3972.3964h26.8004c.2188 0 .3972-.1775.3972-.3963v-13.0423c0-.2623.2119-.4732.4732-.4732s.4732.2109.4732.4732v13.0422c0 .7404-.6024 1.3428-1.3436 1.3428z" fill="#000000" style="fill: rgb(221, 197, 162);"></path><path id="_210860408" d="m22.6448 15.1318h-9.9367c-.2613 0-.4733-.2119-.4733-.4732.0001-.2613.2119-.4732.4732-.4732h9.9368c.2612 0 .4731.2119.4731.4732 0 .2612-.2119.4732-.4731.4732z" fill="#000000" style="fill: rgb(221, 197, 162);"></path><path id="_210860456" d="m20.9697 32.3197v5.2301c2.7792-.2287 5.0014-2.4509 5.2301-5.2301zm-.4731 6.1963c-.2613 0-.4733-.212-.4733-.4732v-6.1963c0-.2612.2119-.4732.4732-.4732h6.1963c.2613 0 .4732.212.4732.4732 0 3.6774-2.9922 6.6696-6.6694 6.6695z" fill="#000000" style="fill: rgb(221, 197, 162);"></path><path id="_210860240" d="m18.7575 24.3843c-3.1559 0-5.7232 2.5673-5.7232 5.7231.0001 2.9961 2.3149 5.4618 5.2499 5.7034v-5.7034c0-.2612.2119-.4732.4732-.4732l5.7034-.0001c-.2416-2.9349-2.7073-5.2498-5.7033-5.2498zm0 12.3926c-3.6774 0-6.6696-2.9921-6.6696-6.6695 0-3.6773 2.9921-6.6695 6.6695-6.6695 3.6773 0 6.6695 2.9922 6.6695 6.6695 0 .2613-.212.4733-.4732.4733l-5.7231-.0001v5.7231c0 .2612-.212.4732-.4731.4732z" fill="#000000" style="fill: rgb(221, 197, 162);"></path><path id="_210860000" d="m34.9605 38.516h-7.8142c-.2612 0-.4733-.212-.4733-.4732.0001-.2613.212-.4732.4733-.4732h7.8142c.2611 0 .4731.212.4731.4732s-.212.4733-.4731.4732z" fill="#000000" style="fill: rgb(221, 197, 162);"></path><path id="_210860192" d="m33.3466 36.6773h-4.5864c-.2613 0-.4733-.2119-.4733-.4732.0001-.2613.212-.4732.4733-.4732h4.5864c.2612 0 .4731.212.4731.4732 0 .2613-.212.4732-.4731.4732z" fill="#000000" style="fill: rgb(221, 197, 162);"></path><path id="_210859664" d="m22.6448 18.0274h-9.9367c-.2613 0-.4733-.212-.4733-.4733.0001-.2612.2119-.4732.4732-.4732h9.9368c.2612 0 .4731.212.4731.4732 0 .2613-.2119.4733-.4731.4733z" fill="#000000" style="fill: rgb(221, 197, 162);"></path><path id="_210859040" d="m22.6448 20.9219h-9.9367c-.2613 0-.4733-.211-.4733-.4732.0001-.2613.2119-.4732.4732-.4732l9.9368-.0001c.2612 0 .4731.212.4731.4733 0 .2622-.2119.4732-.4731.4732z" fill="#000000" style="fill: rgb(221, 197, 162);"></path><path id="_210859760" d="m30.8424 26.1599c.071 0 .1419.0158.208.0484.2494.1222.5067.2287.765.3174.1716.0591.2938.21.3165.3894l.1597 1.3004c.0177.1429.1074.3855.3312.3855l2.7369-.0001c.2247 0 .3145-.2424.3322-.3854l.1597-1.3004c.0218-.1794.1449-.3302.3155-.3894.2593-.0888.5166-.1952.765-.3174.1627-.08.3569-.0592.4999.0522l1.0323.8064c.1143.0888.3489.1962.5076.0375l1.9353-1.9353c.1587-.1587.0503-.3933-.0384-.5067l-.8055-1.0323c-.1124-.1429-.1321-.3371-.0523-.4998.1214-.2465.2278-.5048.3175-.765.0582-.1716.21-.2938.3894-.3165l1.2994-.1597c.143-.0178.3855-.1075.3855-.3313l.0001-2.7368c0-.2248-.2426-.3145-.3856-.3322l-1.2993-.1597c-.1795-.0218-.3313-.145-.3905-.3155-.0886-.2603-.1952-.5176-.3175-.7651-.0788-.1627-.0591-.3569.0523-.4998l.8065-1.0322c.0888-.1144.1971-.3491.0384-.5078l-1.9353-1.9353c-.1587-.1587-.3933-.0502-.5077.0385l-1.0322.8064c-.1429.1115-.3362.1312-.4989.0523-.2484-.1223-.5067-.2287-.766-.3185-.1705-.0581-.2938-.2099-.3155-.3894l-.1597-1.2994c-.0177-.1429-.1075-.3854-.3323-.3854l-2.7367-.0001c-.2239 0-.3136.2426-.3313.3855l-.1597 1.2994c-.0227.1794-.1449.3313-.3165.3894-.2593.0898-.5166.1962-.765.3185-.1626.0788-.3569.0592-.4999-.0523l-1.0322-.8064c-.1133-.0888-.349-.1972-.5068-.0385l-1.9352 1.9353c-.1587.1587-.0513.3934.0374.5078l.8065 1.0322c.1114.1429.1321.3371.0522.4998-.1212.2474-.2287.5058-.3174.7651-.0591.1705-.21.2937-.3895.3155l-1.3003.1597c-.1429.0177-.3855.1074-.3855.3322l.0001 2.7368c0 .2238.2424.3135.3854.3313l1.2994.1597c.1795.0226.3312.1449.3904.3165.0898.2612.1962.5185.3174.765.0799.1627.0592.3569-.0522.4998l-.8064 1.0322c-.0887.1134-.1963.3481-.0375.5068l1.9353 1.9353c.1587.1597.3933.0513.5067-.0375l1.0333-.8064c.0847-.0661.1872-.1006.2908-.1006zm4.5173 3.3875h-2.7368c-.6498 0-1.1841-.5116-1.2709-1.2165l-.1242-1.0126c-.1083-.0424-.2159-.0867-.3224-.134l-.8044.628c-.56.4377-1.2995.4209-1.7589-.0385l-1.9352-1.9353c-.4595-.4594-.4762-1.1988-.0385-1.7588l.628-.8035c-.0473-.1065-.0917-.2139-.1341-.3234l-1.0125-.1242c-.7048-.0868-1.2166-.6211-1.2166-1.2708v-2.7368c0-.6497.5117-1.184 1.2166-1.2708l1.0125-.1253c.0425-.1084.0868-.2158.1341-.3223l-.6279-.8035c-.4378-.56-.4211-1.3004.0383-1.7598l1.9354-1.9353c.4594-.4595 1.1988-.4752 1.7587-.0385l.8046.6281c.1065-.0463.2139-.0917.3223-.1331l.1242-1.0126c.0869-.7049.6211-1.2165 1.2708-1.2165h2.7369c.6496 0 1.184.5117 1.2707 1.2166l.1253 1.0125c.1084.0414.2159.0868.3223.1331l.8045-.6281c.559-.4367 1.2994-.4209 1.7588.0385l1.9354 1.9353c.4594.4594.4751 1.1998.0384 1.7598l-.628.8035c.0463.1065.0916.2139.1331.3224l1.0125.1252c.7049.0868 1.2165.6211 1.2165 1.2708l.0001 2.7368c0 .6497-.5118 1.1841-1.2166 1.2708l-1.0115.1242c-.0424.1085-.0868.2169-.1341.3234l.6281.8035c.4366.56.4208 1.2994-.0386 1.7588l-1.9352 1.9353c-.4594.4594-1.1999.4762-1.7589.0385l-.8044-.628c-.1065.0473-.215.0917-.3225.134l-.1252 1.0125c-.0867.7049-.6211 1.2167-1.2707 1.2166z" fill="#000000" style="fill: rgb(221, 197, 162);"></path><path id="_210859184" d="m33.9913 15.7825c-2.4292 0-4.4069 1.9767-4.4069 4.4069 0 2.4292 1.9776 4.4069 4.4068 4.4069 2.4303 0 4.407-1.9777 4.407-4.4069 0-2.4302-1.9768-4.4069-4.4069-4.4069zm0 9.7603c-2.9518 0-5.3534-2.4017-5.3534-5.3534s2.4016-5.3533 5.3533-5.3533c2.9518-.0001 5.3534 2.4016 5.3534 5.3533s-2.4016 5.3534-5.3533 5.3534z" fill="#000000" style="fill: rgb(221, 197, 162);"></path><path id="_210859592" d="m4.0421 39.9189c-.1784 0-.3411-.0995-.422-.2573l-2.7426-5.3691c-.0335-.0661-.0514-.14-.0514-.2149l.0001-20.9767c0-.2623.2119-.4732.4732-.4732s.4732.211.4732.4732l.0001 20.8632 2.2694 4.4415 2.2695-4.4415v-20.8632c0-.2623.212-.4732.4732-.4732.2614 0 .4732.211.4732.4732l.0001 20.9767c0 .0749-.0178.1489-.0523.2149l-2.7426 5.3691c-.0809.1578-.2436.2574-.4211.2573z" fill="#000000" style="fill: rgb(221, 197, 162);"></path><path id="_210859424" d="m2.7713 37.4325c-.2011 0-.3875-.1291-.4506-.3302-.0788-.2495.0592-.5156.3076-.5945.9377-.2968 1.889-.2968 2.8266 0 .2495.0788.3874.3451.3085.5945-.0788.2494-.345.3874-.5944.3086-.7483-.2367-1.5065-.2367-2.2548 0-.0472.0147-.0956.0216-.1429.0216z" fill="#000000" style="fill: rgb(221, 197, 162);"></path><path id="_210859112" d="m.9543 9.7469c-.0028 0-.0079.005-.0079.0079l.0001.9514c0 .0029.0048.0079.0078.0079l6.1746-.0001c.003 0 .0079-.0048.0079-.0078v-.9514c0-.003-.0049-.0079-.0079-.0079zm6.1746 1.9136h-6.1746c-.5255 0-.9543-.4279-.9543-.9543l.0001-.9514c0-.5265.4287-.9543.9542-.9543l6.1746-.0001c.5265 0 .9543.4279.9543.9544l.0001.9514c0 .5264-.4279.9543-.9544.9543z" fill="#000000" style="fill: rgb(221, 197, 162);"></path><path id="_210859256" d="m7.1289 13.5741h-6.1746c-.5255 0-.9543-.4288-.9543-.9553l.0001-.9504c0-.5264.4287-.9543.9542-.9543.2623-.0001.4732.2119.4732.4732.0001.2612-.2109.4732-.4732.4732-.0028 0-.0079.005-.0079.0079l.0001.9504c0 .0039.0048.0089.0078.0089h6.1746c.003 0 .0079-.0049.0079-.0089v-.9504c0-.003-.0049-.0079-.0079-.0079-.2612 0-.4732-.2119-.4732-.4732.0001-.2613.2119-.4732.4732-.4732.5265-.0001.9543.4279.9543.9543l.0001.9504c0 .5264-.4279.9553-.9544.9553z" fill="#000000" style="fill: rgb(221, 197, 162);"></path><path id="_210859520" d="m1.8388 34.6987c-.2821 0-.5414-.0868-.7603-.2021-.2306-.1223-.3194-.4082-.1981-.6389.1213-.2317.4081-.3204.6388-.1991.1962.1035.5245.276 1.0411-.4752.0898-.1302.2366-.208.3963-.2051.1579.002.3037.0818.3904.214.1164.1784.3885.2937.6951.2937.3057 0 .5787-.1153.695-.2937.0858-.1322.2327-.212.3905-.214h.0059c.1558 0 .3017.0759.3894.2051.5166.7512.8449.5787 1.0411.4752.2317-.1213.5176-.0326.6388.1991.1223.2307.0336.5166-.1981.6389-.4979.2622-1.2068.3815-1.9186-.353-.2888.1854-.6516.2889-1.044.2889-.3933 0-.7562-.1035-1.045-.2889-.3993.4121-.7976.5551-1.1583.5551z" fill="#000000" style="fill: rgb(221, 197, 162);"></path><path id="_210859496" d="m2.9508 33.9247c-.2613 0-.4733-.2119-.4733-.4732v-20.3506c0-.2623.212-.4732.4732-.4732.2614 0 .4732.211.4732.4732l.0001 20.3506c0 .2613-.212.4733-.4732.4732z" fill="#000000" style="fill: rgb(221, 197, 162);"></path><path id="_210858440" d="m5.1335 33.9247c-.2612 0-.4733-.2119-.4733-.4732l.0001-20.3506c0-.2623.2119-.4732.4732-.4732s.4732.211.4732.4732v20.3506c0 .2613-.212.4733-.4732.4732z" fill="#000000" style="fill: rgb(221, 197, 162);"></path><path id="_210858992" d="m6.7849 9.7469c-.2622 0-.4733-.2119-.4733-.4732v-2.6915c0-1.5143-1.1771-2.2034-2.2695-2.2034-1.0934 0-2.2695.6891-2.2695 2.2034l.0001 2.6915c0 .2612-.2121.4732-.4733.4732s-.4733-.2119-.4733-.4732l.0001-2.6915c0-2.0684 1.6178-3.1499 3.2159-3.1499 1.5982 0 3.2159 1.0815 3.2159 3.1499l.0001 2.6915c0 .2612-.212.4732-.4732.4732z" fill="#000000" style="fill: rgb(221, 197, 162);"></path></g></g></svg>